{"title":"Edward Maya This Is My Life 1080p Anky","uid":6465497,"size":105272569,"categoryP":"video","categoryS":"music_videos","magnet":"?xt=urn:btih:f876aae7edaa0cfbf5e082eaf986addde9532a58&amp;dn=Edward+Maya+This+Is+My+Life+1080p+Anky&amp;tr=udp%3A%2F%2Ftracker.openbittorrent.com%3A80&amp;tr=udp%3A%2F%2Fopen.demonii.com%3A1337&amp;tr=udp%3A%2F%2Ftracker.coppersurfer.tk%3A6969&amp;tr=udp%3A%2F%2Fexodus.desync.com%3A6969","seeders":0,"leechers":1,"uploader":"ankygautam","files":2,"time":1307952889,"description":"General\nComplete name                    : Edward Maya - This Is My Life (Official Music Video) [HD].mp4\nFormat                           : MPEG-4\nFormat profile                   : Base Media / Version 2\nCodec ID                         : mp42\nFile size                        : 100 MiB\nDuration                         : 3mn 51s\n\n\nVideo\nID                               : 1\nFormat                           : AVC\nFormat/Info                      : Advanced Video Codec\nFormat profile                   : &lt;a class=&quot;__cf_email__&quot; href=&quot;/cdn-cgi/l/email-protection&quot; data-cfemail=&quot;430b2a242b030f776d73&quot;&gt;[email&amp;#160;protected]&lt;/a&gt;&lt;script cf-hash='f9e31' type=&quot;text/javascript&quot;&gt;\n/* &lt;![CDATA[ */!function(){try{var t=&quot;currentScript&quot;in document?document.currentScript:function(){for(var t=document.getElementsByTagName(&quot;script&quot;),e=t.length;e--;)if(t[e].getAttribute(&quot;cf-hash&quot;))return t[e]}();if(t&amp;&amp;t.previousSibling){var e,r,n,i,c=t.previousSibling,a=c.getAttribute(&quot;data-cfemail&quot;);if(a){for(e=&quot;&quot;,r=parseInt(a.substr(0,2),16),n=2;a.length-n;n+=2)i=parseInt(a.substr(n,2),16)^r,e+=String.fromCharCode(i);e=document.createTextNode(e),c.parentNode.replaceChild(e,c)}}}catch(u){}}();/* ]]&gt; */&lt;/script&gt;\nFormat settings, CABAC           : Yes\nFormat settings, ReFrames        : 1 frame\nCodec ID                         : avc1\nCodec ID/Info                    : Advanced Video Coding\nDuration                         : 3mn 51s\nBit rate mode                    : Variable\nBit rate                         : 3 503 Kbps\nMaximum bit rate                 : 7 101 Kbps\nWidth                            : 1 920 pixels\nHeight                           : 1 080 pixels\nDisplay aspect ratio             : 16:9\nFrame rate mode                  : Constant\nFrame rate                       : 25.000 fps\nResolution                       : 24 bits\nColorimetry                      : 4:2:0\nScan type                        : Progressive\nBits/(Pixel*Frame)               : 0.068\nStream size                      : 96.8 MiB (96%)\n\nAudio\nID                               : 2\nFormat                           : AAC\nFormat/Info                      : Advanced Audio Codec\nFormat version                   : Version 4\nFormat profile                   : LC\nFormat settings, SBR             : No\nCodec ID                         : 40\nDuration                         : 3mn 51s\nBit rate mode                    : Variable\nBit rate                         : 127 Kbps\nMaximum bit rate                 : 168 Kbps\nChannel(s)                       : 2 channels\nChannel positions                : L R\nSampling rate                    : 44.1 KHz\nResolution                       : 16 bits\nStream size                      : 3.51 MiB (3%)\n\n\n\n\n &lt;a href=&quot;\nhttp://img.sceper.eu/images/vlcsnaywy.png&quot; rel=&quot;nofollow&quot; target=&quot;_NEW&quot;&gt;\nhttp://img.sceper.eu/images/vlcsnaywy.png&lt;/a&gt;\n &lt;a href=&quot;\nhttp://img.sceper.eu/images/vlcsnaaha.png&quot; rel=&quot;nofollow&quot; target=&quot;_NEW&quot;&gt;\nhttp://img.sceper.eu/images/vlcsnaaha.png&lt;/a&gt;\n &lt;a href=&quot;\nhttp://img.sceper.eu/images/vlcsnaufu.png&quot; rel=&quot;nofollow&quot; target=&quot;_NEW&quot;&gt;\nhttp://img.sceper.eu/images/vlcsnaufu.png&lt;/a&gt;","torrent":{"xt":"urn:btih:f876aae7edaa0cfbf5e082eaf986addde9532a58","amp;dn":"Edward+Maya+This+Is+My+Life+1080p+Anky","amp;tr":["udp%3A%2F%2Ftracker.openbittorrent.com%3A80","udp%3A%2F%2Fopen.demonii.com%3A1337","udp%3A%2F%2Ftracker.coppersurfer.tk%3A6969","udp%3A%2F%2Fexodus.desync.com%3A6969"],"infoHash":"f876aae7edaa0cfbf5e082eaf986addde9532a58","infoHashBuffer":{"type":"Buffer","data":[248,118,170,231,237,170,12,251,245,224,130,234,249,134,173,221,233,83,42,88]},"announce":[],"urlList":[]}}